# xmcd
#
# Track frame offsets:
#	150
#	13647
#	25347
#	36830
#	55267
#	73287
#	76050
#	86622
#	101025
#	111150
#	122472
#	135600
#	149795
#	167255
#	175265
#	185470
#	198201
#	211629
#	222879
#	233531
#	244634
#
# Disc length: 3489 seconds
# Revision: 0
# Processed by: cddbd v1.5.2PL0 Copyright (c) Steve Scherf et al.
# Submitted via: dBpowerAMP V12.0
#
DISCID=1b0d9f15
DTITLE=Buster Brown - New King of the Blues
DYEAR=1961
DGENRE=Blues
TTITLE0=Fannie Mae
TTITLE1=John Henry
TTITLE2=The Madison Shuffle
TTITLE3=St. Louis Blues
TTITLE4=When Things Go Wrong (It Hurts Me Too)
TTITLE5=Lost in a Dream
TTITLE6=Lost in a Dream
TTITLE7=Gonna Love My Baby
TTITLE8=I Got the Blues When It Rains
TTITLE9=Is You Is or Is You Ain't My Baby?
TTITLE10=Don't Dog Your Woman
TTITLE11=Blueberry Hill
TTITLE12=Sincerely
TTITLE13=I'm Goin', But I'll Be Back
TTITLE14=Good News
TTITLE15=Raise a Ruckus Tonight
TTITLE16=Doctor Brown
TTITLE17=Sugar Babe
TTITLE18=No More
TTITLE19=Fannie Mae
TTITLE20=Raise a Ruckus Tonight
EXTD=
EXTT0=
EXTT1=
EXTT2=
EXTT3=
EXTT4=
EXTT5=
EXTT6=
EXTT7=
EXTT8=
EXTT9=
EXTT10=
EXTT11=
EXTT12=
EXTT13=
EXTT14=
EXTT15=
EXTT16=
EXTT17=
EXTT18=
EXTT19=
EXTT20=
PLAYORDER=
